<svg width="25" height="27" viewBox="0 0 25 27" fill="none" xmlns="http://www.w3.org/2000/svg">
<path d="M22.3958 4.50003H19.618V6.75003C19.618 6.96671 19.5785 7.18127 19.5017 7.38145C19.4249 7.58164 19.3124 7.76354 19.1705 7.91675C19.0287 8.06997 18.8603 8.19151 18.6749 8.27443C18.4895 8.35735 18.2909 8.40003 18.0902 8.40003C17.8896 8.40003 17.6909 8.35735 17.5056 8.27443C17.3202 8.19151 17.1518 8.06997 17.0099 7.91675C16.8681 7.76354 16.7555 7.58164 16.6788 7.38145C16.602 7.18127 16.5625 6.96671 16.5625 6.75003V4.50003H8.47218V6.75003C8.47218 7.18763 8.31122 7.60732 8.02471 7.91675C7.73819 8.22619 7.3496 8.40003 6.94441 8.40003C6.53921 8.40003 6.15062 8.22619 5.8641 7.91675C5.57759 7.60732 5.41663 7.18763 5.41663 6.75003V4.50003H2.63885C2.47359 4.49799 2.30963 4.53178 2.15667 4.59937C2.0037 4.66697 1.86485 4.76701 1.7483 4.89357C1.63176 5.02013 1.53991 5.17065 1.47817 5.33622C1.41642 5.50179 1.38605 5.67906 1.38885 5.85753V22.6425C1.38609 22.8178 1.41534 22.992 1.47492 23.1552C1.53451 23.3183 1.62326 23.4671 1.73612 23.5932C1.84897 23.7192 1.98371 23.82 2.13265 23.8898C2.28158 23.9597 2.44179 23.9971 2.60413 24H22.3958C22.5581 23.9971 22.7183 23.9597 22.8673 23.8898C23.0162 23.82 23.151 23.7192 23.2638 23.5932C23.3767 23.4671 23.4654 23.3183 23.525 23.1552C23.5846 22.992 23.6138 22.8178 23.6111 22.6425V5.85753C23.6138 5.6822 23.5846 5.50801 23.525 5.3449C23.4654 5.18179 23.3767 5.03295 23.2638 4.90689C23.151 4.78083 23.0162 4.68002 22.8673 4.61021C22.7183 4.5404 22.5581 4.50296 22.3958 4.50003ZM6.94441 19.5H5.55552V18H6.94441V19.5ZM6.94441 15.75H5.55552V14.25H6.94441V15.75ZM6.94441 12H5.55552V10.5H6.94441V12ZM11.1111 19.5H9.72218V18H11.1111V19.5ZM11.1111 15.75H9.72218V14.25H11.1111V15.75ZM11.1111 12H9.72218V10.5H11.1111V12ZM15.2777 19.5H13.8889V18H15.2777V19.5ZM15.2777 15.75H13.8889V14.25H15.2777V15.75ZM15.2777 12H13.8889V10.5H15.2777V12ZM19.4444 19.5H18.0555V18H19.4444V19.5ZM19.4444 15.75H18.0555V14.25H19.4444V15.75ZM19.4444 12H18.0555V10.5H19.4444V12Z" fill="#007EA3"/>
<path d="M6.94444 7.5C7.12862 7.5 7.30526 7.42098 7.43549 7.28033C7.56572 7.13968 7.63889 6.94891 7.63889 6.75V2.25C7.63889 2.05109 7.56572 1.86032 7.43549 1.71967C7.30526 1.57902 7.12862 1.5 6.94444 1.5C6.76027 1.5 6.58363 1.57902 6.4534 1.71967C6.32316 1.86032 6.25 2.05109 6.25 2.25V6.75C6.25 6.94891 6.32316 7.13968 6.4534 7.28033C6.58363 7.42098 6.76027 7.5 6.94444 7.5Z" fill="#007EA3"/>
<path d="M18.0555 7.5C18.2397 7.5 18.4163 7.42098 18.5466 7.28033C18.6768 7.13968 18.75 6.94891 18.75 6.75V2.25C18.75 2.05109 18.6768 1.86032 18.5466 1.71967C18.4163 1.57902 18.2397 1.5 18.0555 1.5C17.8714 1.5 17.6947 1.57902 17.5645 1.71967C17.4342 1.86032 17.3611 2.05109 17.3611 2.25V6.75C17.3611 6.94891 17.4342 7.13968 17.5645 7.28033C17.6947 7.42098 17.8714 7.5 18.0555 7.5Z" fill="#007EA3"/>
</svg>
