<svg width="240" height="44" viewBox="0 0 240 44" fill="none" xmlns="http://www.w3.org/2000/svg">
<path d="M44.1 9.8V35H38.268V24.668H26.82V35H20.988V9.8H26.82V19.736H38.268V9.8H44.1ZM58.8822 35.288C56.8422 35.288 55.0062 34.868 53.3742 34.028C51.7662 33.164 50.5062 31.976 49.5942 30.464C48.6822 28.952 48.2262 27.236 48.2262 25.316C48.2262 23.396 48.6822 21.68 49.5942 20.168C50.5062 18.656 51.7662 17.48 53.3742 16.64C55.0062 15.776 56.8422 15.344 58.8822 15.344C60.9222 15.344 62.7462 15.776 64.3542 16.64C65.9622 17.48 67.2222 18.656 68.1342 20.168C69.0462 21.68 69.5022 23.396 69.5022 25.316C69.5022 27.236 69.0462 28.952 68.1342 30.464C67.2222 31.976 65.9622 33.164 64.3542 34.028C62.7462 34.868 60.9222 35.288 58.8822 35.288ZM58.8822 30.68C60.3222 30.68 61.4982 30.2 62.4102 29.24C63.3462 28.256 63.8142 26.948 63.8142 25.316C63.8142 23.684 63.3462 22.388 62.4102 21.428C61.4982 20.444 60.3222 19.952 58.8822 19.952C57.4422 19.952 56.2542 20.444 55.3182 21.428C54.3822 22.388 53.9142 23.684 53.9142 25.316C53.9142 26.948 54.3822 28.256 55.3182 29.24C56.2542 30.2 57.4422 30.68 58.8822 30.68ZM85.7481 34.064C85.1961 34.472 84.5121 34.784 83.6961 35C82.9041 35.192 82.0641 35.288 81.1761 35.288C78.8721 35.288 77.0841 34.7 75.8121 33.524C74.5641 32.348 73.9401 30.62 73.9401 28.34V20.384H70.9521V16.064H73.9401V11.348H79.5561V16.064H84.3801V20.384H79.5561V28.268C79.5561 29.084 79.7601 29.72 80.1681 30.176C80.6001 30.608 81.2001 30.824 81.9681 30.824C82.8561 30.824 83.6121 30.584 84.2361 30.104L85.7481 34.064ZM107.275 25.388C107.275 25.46 107.239 25.964 107.167 26.9H92.5149C92.7789 28.1 93.4029 29.048 94.3869 29.744C95.3709 30.44 96.5949 30.788 98.0589 30.788C99.0669 30.788 99.9549 30.644 100.723 30.356C101.515 30.044 102.247 29.564 102.919 28.916L105.907 32.156C104.083 34.244 101.419 35.288 97.9149 35.288C95.7309 35.288 93.7989 34.868 92.1189 34.028C90.4389 33.164 89.1429 31.976 88.2309 30.464C87.3189 28.952 86.8629 27.236 86.8629 25.316C86.8629 23.42 87.3069 21.716 88.1949 20.204C89.1069 18.668 90.3429 17.48 91.9029 16.64C93.4869 15.776 95.2509 15.344 97.1949 15.344C99.0909 15.344 100.807 15.752 102.343 16.568C103.879 17.384 105.079 18.56 105.943 20.096C106.831 21.608 107.275 23.372 107.275 25.388ZM97.2309 19.592C95.9589 19.592 94.8909 19.952 94.0269 20.672C93.1629 21.392 92.6349 22.376 92.4429 23.624H101.983C101.791 22.4 101.263 21.428 100.399 20.708C99.5349 19.964 98.4789 19.592 97.2309 19.592ZM111.014 8.288H116.63V35H111.014V8.288Z" fill="white"/>
<path d="M126.768 12.104V22.004H139.8V24.308H126.768V35H124.104V9.8H141.384V12.104H126.768ZM152.196 15.92C154.668 15.92 156.564 16.544 157.884 17.792C159.204 19.016 159.864 20.84 159.864 23.264V35H157.416V32.048C156.84 33.032 155.988 33.8 154.86 34.352C153.756 34.904 152.436 35.18 150.9 35.18C148.788 35.18 147.108 34.676 145.86 33.668C144.612 32.66 143.988 31.328 143.988 29.672C143.988 28.064 144.564 26.768 145.716 25.784C146.892 24.8 148.752 24.308 151.296 24.308H157.308V23.156C157.308 21.524 156.852 20.288 155.94 19.448C155.028 18.584 153.696 18.152 151.944 18.152C150.744 18.152 149.592 18.356 148.488 18.764C147.384 19.148 146.436 19.688 145.644 20.384L144.492 18.476C145.452 17.66 146.604 17.036 147.948 16.604C149.292 16.148 150.708 15.92 152.196 15.92ZM151.296 33.164C152.736 33.164 153.972 32.84 155.004 32.192C156.036 31.52 156.804 30.56 157.308 29.312V26.216H151.368C148.128 26.216 146.508 27.344 146.508 29.6C146.508 30.704 146.928 31.58 147.768 32.228C148.608 32.852 149.784 33.164 151.296 33.164ZM166.806 8.288H169.362V35H166.806V8.288ZM184.322 35.18C182.45 35.18 180.77 34.772 179.282 33.956C177.818 33.14 176.666 32 175.826 30.536C174.986 29.048 174.566 27.38 174.566 25.532C174.566 23.684 174.986 22.028 175.826 20.564C176.666 19.1 177.818 17.96 179.282 17.144C180.77 16.328 182.45 15.92 184.322 15.92C185.954 15.92 187.406 16.244 188.678 16.892C189.974 17.516 190.994 18.44 191.738 19.664L189.83 20.96C189.206 20.024 188.414 19.328 187.454 18.872C186.494 18.392 185.45 18.152 184.322 18.152C182.954 18.152 181.718 18.464 180.614 19.088C179.534 19.688 178.682 20.552 178.058 21.68C177.458 22.808 177.158 24.092 177.158 25.532C177.158 26.996 177.458 28.292 178.058 29.42C178.682 30.524 179.534 31.388 180.614 32.012C181.718 32.612 182.954 32.912 184.322 32.912C185.45 32.912 186.494 32.684 187.454 32.228C188.414 31.772 189.206 31.076 189.83 30.14L191.738 31.436C190.994 32.66 189.974 33.596 188.678 34.244C187.382 34.868 185.93 35.18 184.322 35.18ZM204.183 35.18C202.359 35.18 200.715 34.772 199.251 33.956C197.787 33.116 196.635 31.964 195.795 30.5C194.955 29.036 194.535 27.38 194.535 25.532C194.535 23.684 194.955 22.028 195.795 20.564C196.635 19.1 197.787 17.96 199.251 17.144C200.715 16.328 202.359 15.92 204.183 15.92C206.007 15.92 207.651 16.328 209.115 17.144C210.579 17.96 211.719 19.1 212.535 20.564C213.375 22.028 213.795 23.684 213.795 25.532C213.795 27.38 213.375 29.036 212.535 30.5C211.719 31.964 210.579 33.116 209.115 33.956C207.651 34.772 206.007 35.18 204.183 35.18ZM204.183 32.912C205.527 32.912 206.727 32.612 207.783 32.012C208.863 31.388 209.703 30.512 210.303 29.384C210.903 28.256 211.203 26.972 211.203 25.532C211.203 24.092 210.903 22.808 210.303 21.68C209.703 20.552 208.863 19.688 207.783 19.088C206.727 18.464 205.527 18.152 204.183 18.152C202.839 18.152 201.627 18.464 200.547 19.088C199.491 19.688 198.651 20.552 198.027 21.68C197.427 22.808 197.127 24.092 197.127 25.532C197.127 26.972 197.427 28.256 198.027 29.384C198.651 30.512 199.491 31.388 200.547 32.012C201.627 32.612 202.839 32.912 204.183 32.912ZM228.661 15.92C231.037 15.92 232.921 16.616 234.313 18.008C235.729 19.376 236.437 21.38 236.437 24.02V35H233.881V24.272C233.881 22.304 233.389 20.804 232.405 19.772C231.421 18.74 230.017 18.224 228.193 18.224C226.153 18.224 224.533 18.836 223.333 20.06C222.157 21.26 221.569 22.928 221.569 25.064V35H219.013V16.064H221.461V19.556C222.157 18.404 223.117 17.516 224.341 16.892C225.589 16.244 227.029 15.92 228.661 15.92Z" fill="#33A8E4" fill-opacity="0.49"/>
<path d="M9.6 13.1021C12.27 14.3353 15 15.6181 17.66 16.8513C17.81 16.9209 18 16.9707 18 17.1696C18 17.3685 17.81 17.4082 17.66 17.4778C15 18.711 12.3 19.974 9.62 21.1973C9.42967 21.3 9.21655 21.3538 9 21.3538C8.78345 21.3538 8.57033 21.3 8.38 21.1973C5.69 19.9641 3 18.711 0.32 17.4679C0.18 17.4082 0 17.3585 0 17.1596C0 16.9806 0.18 16.9309 0.31 16.8712C3 15.6181 5.74 14.3353 8.44 13.0921C8.73 12.9628 9.3 12.9728 9.6 13.1021ZM9 31.2914C8.8 31.2914 8.66 31.2118 8.38 31.1124C5.69 29.8792 3 28.6261 0.33 27.383C0.19 27.3134 0 27.2736 0 27.0648C0 26.8659 0.19 26.8261 0.34 26.7565C0.78 26.5476 1.23 26.3388 1.67 26.1299C2.12 25.931 2.56 25.931 3 26.1399C4.79 26.9653 6.57 27.7907 8.35 28.6162C8.79 28.825 9.23 28.8151 9.67 28.6162C11.45 27.7808 13.23 26.9554 15 26.1299C15.44 25.931 15.87 25.9211 16.29 26.12C16.77 26.3288 17.24 26.5576 17.71 26.7764C17.78 26.8062 17.85 26.846 17.91 26.8957C18.04 26.9951 18.04 27.1642 17.91 27.2438C17.83 27.3034 17.74 27.3532 17.65 27.3929C15 28.656 12.33 29.8692 9.66 31.0925C9.46 31.1919 9.19 31.2914 9 31.2914ZM9 26.3388C8.9 26.3388 8.55 26.2393 8.36 26.1697C5.68 24.9167 3 23.6835 0.34 22.4304C0.2 22.3708 0 22.321 0 22.1221C0 21.9133 0.2 21.8735 0.35 21.8039C0.8 21.5851 1.25 21.3763 1.7 21.1674C2.13 20.9785 2.56 20.9785 3 21.1973C4.78 22.0127 6.58 22.8481 8.38 23.6835C8.79 23.8724 9.21 23.8724 9.63 23.6835C11.43 22.8382 13.23 22.0028 15.04 21.1674C15.45 20.9785 15.87 20.9785 16.29 21.1674C16.76 21.3862 17.24 21.605 17.71 21.8238C17.77 21.8536 17.84 21.8835 17.9 21.9332C18.04 22.0426 18.04 22.1917 17.89 22.3111C17.84 22.3509 17.77 22.3807 17.71 22.4105C15 23.6835 12.31 24.9266 9.61 26.1697C9.42 26.2592 9.08 26.3388 9 26.3388Z" fill="white"/>
</svg>
