<svg width="58" height="64" viewBox="0 0 58 64" fill="none" xmlns="http://www.w3.org/2000/svg">
<rect width="58" height="64" rx="10" fill="#33A8E4"/>
<path d="M46.3956 46.4052L38.7139 38.0914C39.9114 35.9641 40.543 33.5204 40.5393 31.0294C40.5393 23.512 34.5203 17 27.5745 17C25.9231 16.9997 24.2878 17.3515 22.7621 18.0354C21.2364 18.7192 19.8501 19.7216 18.6824 20.9854C17.5147 22.2492 16.5885 23.7496 15.9566 25.4008C15.3248 27.0521 14.9997 28.8219 15 30.6092C15 38.1244 21.0189 44.6386 27.9627 44.6386C30.1885 44.6408 32.3744 43.9998 34.2947 42.7818L42.017 51.144C42.3802 51.536 42.8722 51.7562 43.3851 51.7562C43.898 51.7562 44.39 51.536 44.7531 51.144L46.67 49.0694C47.4241 48.2532 47.1497 47.2214 46.3956 46.4052ZM18.8703 30.6092C18.8701 29.3719 19.095 28.1467 19.5323 27.0035C19.9696 25.8603 20.6107 24.8215 21.419 23.9465C22.2273 23.0716 23.1869 22.3775 24.2431 21.9039C25.2992 21.4303 26.4313 21.1866 27.5745 21.1866C32.3839 21.1866 36.6689 25.822 36.6689 31.0294C36.6684 33.5282 35.751 35.9246 34.1183 37.6915C32.4857 39.4585 30.2716 40.4514 27.9627 40.452C23.1533 40.4498 18.8703 35.8122 18.8703 30.6092Z" fill="white"/>
</svg>
